<svg xmlns="http://www.w3.org/2000/svg">
	<symbol id="vector" viewBox="0 0 18 18">
		<path fill-rule="evenodd" clip-rule="evenodd" d="M16.2 8.1C16.2 8.33869 16.2948 8.56761 16.4636 8.7364C16.6324 8.90518 16.8613 9 17.1 9C17.3387 9 17.5676 8.90518 17.7364 8.7364C17.9052 8.56761 18 8.33869 18 8.1V0.9C18 0.661305 17.9052 0.432387 17.7364 0.263604C17.5676 0.0948211 17.3387 0 17.1 0H9.9C9.66131 0 9.43239 0.0948211 9.2636 0.263604C9.09482 0.432387 9 0.661305 9 0.9C9 1.13869 9.09482 1.36761 9.2636 1.5364C9.43239 1.70518 9.66131 1.8 9.9 1.8H16.2V8.1ZM1.8 9.9C1.8 9.6613 1.70518 9.43239 1.5364 9.2636C1.36761 9.09482 1.13869 9 0.9 9C0.661306 9 0.432386 9.09482 0.263603 9.2636C0.09482 9.43239 0 9.6613 0 9.9V17.1C0 17.3387 0.09482 17.5676 0.263603 17.7364C0.432386 17.9052 0.661306 18 0.9 18H8.1C8.3387 18 8.56761 17.9052 8.7364 17.7364C8.90518 17.5676 9 17.3387 9 17.1C9 16.8613 8.90518 16.6324 8.7364 16.4636C8.56761 16.2948 8.3387 16.2 8.1 16.2H1.8V9.9Z" fill="var(--color-grayscale-500)"/>
	</symbol>

	<symbol id="arrow" viewBox="0 0 19 19">
		<path d="M13.721 9.53258C13.7218 9.39809 13.696 9.26477 13.6452 9.14026C13.5943 9.01575 13.5194 8.90251 13.4247 8.80702L7.29326 2.6756C7.10084 2.48317 6.83985 2.37506 6.56771 2.37506C6.29558 2.37506 6.03459 2.48317 5.84216 2.6756C5.64973 2.86802 5.54163 3.12901 5.54163 3.40115C5.54163 3.67328 5.64973 3.93427 5.84216 4.1267L11.2583 9.53258L5.85238 14.9385C5.68496 15.1339 5.59748 15.3854 5.60742 15.6426C5.61735 15.8998 5.72397 16.1438 5.90597 16.3258C6.08796 16.5077 6.33193 16.6144 6.58912 16.6243C6.84631 16.6342 7.09777 16.5468 7.29327 16.3793L13.4247 10.2479C13.6135 10.0576 13.7199 9.80066 13.721 9.53258Z" fill="var(--color-grayscale-500)" />
	</symbol>

	<symbol id="dash" viewBox="0 0 14 2" fill="none">
		<path d="M14 1.35352H0V0H14V1.35352Z" fill="var(--color-grayscale-400)"/>
	</symbol>

	<symbol id="checked" viewBox="0 0 18 18" fill="none">
		<rect width="18" height="18" rx="9" fill="#F6F6F6"/>
		<path fill-rule="evenodd" clip-rule="evenodd" d="M14.0578 5.10889C14.1809 5.23213 14.25 5.3992 14.25 5.57339C14.25 5.74758 14.1809 5.91464 14.0578 6.03789L7.70378 12.3919C7.58053 12.515 7.41346 12.5841 7.23928 12.5841C7.06509 12.5841 6.89802 12.515 6.77478 12.3919L3.92642 9.54356C3.81031 9.41895 3.7471 9.25415 3.7501 9.08385C3.75311 8.91357 3.82209 8.7511 3.94253 8.63066C4.06296 8.51023 4.22544 8.44125 4.39572 8.43824C4.56601 8.43523 4.73081 8.49845 4.85542 8.61456L7.23928 10.9984L13.1288 5.10889C13.252 4.9858 13.4191 4.91666 13.5933 4.91666C13.7674 4.91666 13.9346 4.9858 14.0578 5.10889Z" fill="var(--color-grayscale-600)"/>
	</symbol>

	<symbol id="like" viewBox="0 0 22 22" fill="none">
		<path d="M17.9411 5.10325C17.0869 4.17687 15.9149 3.66666 14.6407 3.66666C13.6883 3.66666 12.816 3.96778 12.0481 4.56159C11.6606 4.86129 11.3095 5.22803 11 5.656C10.6906 5.22813 10.3394 4.86129 9.95177 4.56159C9.18397 3.96778 8.31172 3.66666 7.35927 3.66666C6.08506 3.66666 4.91295 4.17687 4.05882 5.10325C3.2149 6.01881 2.75 7.26962 2.75 8.62539C2.75 10.0208 3.27004 11.2982 4.3865 12.6454C5.38526 13.8505 6.82073 15.0739 8.48304 16.4904C9.05068 16.9742 9.69408 17.5226 10.3621 18.1067C10.5387 18.2613 10.7653 18.3465 11 18.3464C11.2348 18.3464 11.4614 18.2613 11.6376 18.1069C12.3057 17.5227 12.9494 16.9741 13.5173 16.4901C15.1794 15.0737 16.6148 13.8505 17.6136 12.6453C18.7301 11.2982 19.25 10.0208 19.25 8.62526C19.25 7.26962 18.7851 6.01881 17.9411 5.10325Z" fill="var(--color-grayscale-300)"/>
	</symbol>

	<symbol id="arrow2" viewBox="0 0 12 12" fill="none"
		xmlns="http://www.w3.org/2000/svg">
		<path d="M8.66595 5.97943C8.66644 6.06437 8.65016 6.14858 8.61804 6.22721C8.58592 6.30585 8.5386 6.37737 8.47878 6.43768L4.6063 10.3102C4.48476 10.4317 4.31993 10.5 4.14805 10.5C3.97618 10.5 3.81134 10.4317 3.68981 10.3102C3.56828 10.1886 3.5 10.0238 3.5 9.85192C3.5 9.68004 3.56828 9.51521 3.68981 9.39367L7.1105 5.97943L3.69627 2.5652C3.59053 2.44173 3.53528 2.28291 3.54155 2.12047C3.54783 1.95804 3.61516 1.80395 3.73011 1.68901C3.84505 1.57406 3.99914 1.50673 4.16157 1.50045C4.32401 1.49418 4.48283 1.54943 4.6063 1.65516L8.47878 5.52764C8.59801 5.64786 8.66524 5.81012 8.66595 5.97943Z" fill="#656565"/>
	</symbol>
</svg>